<svg width="51" height="36" viewBox="0 0 51 36" fill="none" xmlns="http://www.w3.org/2000/svg">
<path d="M11.3095 0C5.07307 0 0 5.07307 0 11.3096C0 17.3258 4.72132 22.2603 10.6535 22.6012C10.7562 23.7101 10.6792 26.7288 7.78658 30.9279C7.56792 31.2447 7.60761 31.6719 7.87919 31.9434C9.06286 33.1271 9.79439 33.8726 10.3064 34.394C10.9765 35.0757 11.2823 35.387 11.7298 35.7932C11.8815 35.9309 12.0729 36.0002 12.2652 36.0002C12.4519 36.0002 12.6379 35.9348 12.7881 35.8049C17.8285 31.4189 23.4276 22.3568 22.6175 11.252C22.1428 4.73224 17.3873 0 11.3095 0ZM12.2729 34.1146C12.0558 33.9007 11.8083 33.6485 11.4434 33.2773C10.9998 32.8252 10.3912 32.2057 9.46831 31.2796C12.9788 25.8704 12.3157 22.0176 12.0255 21.465C11.8877 21.2028 11.6052 21.0261 11.3095 21.0261C5.95242 21.0261 1.59375 16.6674 1.59375 11.3096C1.59375 5.95242 5.95242 1.59375 11.3095 1.59375C16.5281 1.59375 20.6152 5.70419 21.0284 11.3671C21.9389 23.8572 14.5157 31.9668 12.2729 34.1146Z" fill="#445964"/>
<path d="M50.9199 11.252V11.2512C50.4436 4.73224 45.6873 0 39.6111 0C33.3746 0 28.3008 5.07307 28.3008 11.3096C28.3008 17.3258 33.0229 22.2603 38.9559 22.6012C39.0586 23.7093 38.9807 26.7264 36.0874 30.9279C35.8688 31.2447 35.9085 31.6719 36.18 31.9434C37.359 33.1224 38.089 33.8664 38.601 34.387C39.2741 35.0733 39.5816 35.3862 40.0313 35.7939C40.1831 35.9309 40.3753 36.0002 40.5668 36.0002C40.7535 36.0002 40.9395 35.9348 41.0897 35.8041C46.1301 31.4181 51.7292 22.3561 50.9199 11.252ZM40.5745 34.1146C40.3558 33.8991 40.1061 33.6454 39.7379 33.2703C39.2944 32.8189 38.6882 32.2011 37.7691 31.2796C41.2796 25.8696 40.6174 22.0176 40.3278 21.465C40.1901 21.2036 39.9069 21.0261 39.6111 21.0261C34.2532 21.0261 29.8945 16.6674 29.8945 11.3096C29.8945 5.95242 34.2532 1.59375 39.6111 1.59375C44.8289 1.59375 48.9168 5.70419 49.3308 11.3679V11.3671C50.2405 23.8556 42.8173 31.9668 40.5745 34.1146Z" fill="#445964"/>
</svg>
