<svg width="96" height="96" viewBox="0 0 96 96" fill="none" xmlns="http://www.w3.org/2000/svg">
<g clip-path="url(#clip0_716_265)">
<path d="M89.0745 71.8651C89.742 70.7078 90.1552 69.4051 90.1552 68.2328V27.5851C90.1552 26.4166 89.7427 25.1123 89.0745 23.9551L47.5845 47.9101L89.0745 71.8651Z" fill="#3A3A3A"/>
<path d="M51.2701 94.9394L86.4698 74.6189C87.4838 74.0332 88.4063 73.0222 89.0746 71.8649L47.5846 47.9099L6.09009 71.8649C6.75759 73.0222 7.68084 74.0324 8.69484 74.6189L43.8946 94.9394C45.9218 96.1109 49.2421 96.1109 51.2686 94.9394H51.2701Z" fill="black"/>
<path d="M89.0745 23.9557C88.4063 22.7962 87.4838 21.7852 86.4698 21.2024L51.2693 0.878943C49.242 -0.293307 45.9225 -0.293307 43.8953 0.878943L8.69551 21.2024C6.66751 22.3709 5.01001 25.2449 5.01001 27.5849V68.2319C5.01001 69.4034 5.42251 70.7069 6.09076 71.8642L47.5838 47.9099L89.0745 23.9557Z" fill="#505050"/>
<path d="M47.5837 19.5261C31.9334 19.5261 19.2014 32.2589 19.2014 47.9091C19.2014 63.5594 31.9334 76.2921 47.5837 76.2921C57.6824 76.2921 67.1017 70.8569 72.1612 62.1096L59.8799 55.0011C57.3449 59.3811 52.6349 62.0999 47.5837 62.0999C39.7589 62.0999 33.3922 55.7339 33.3922 47.9084C33.3922 40.0829 39.7597 33.7169 47.5837 33.7169C52.6312 33.7169 57.3464 36.4386 59.8762 40.8156L72.1612 33.7079C67.0987 24.9599 57.6824 19.5261 47.5837 19.5261ZM69.6599 43.1774V46.3326H66.5047V49.4849H69.6599V52.6401H72.8122V49.4849H75.9644V46.3326H72.8122V43.1774H69.6599ZM81.4844 43.1774V46.3326H78.3314V49.4849H81.4844V52.6401H84.6397V49.4849H87.7919V46.3326H84.6397V43.1774H81.4844Z" fill="white"/>
</g>
<defs>
<clipPath id="clip0_716_265">
<rect width="96" height="96" fill="white"/>
</clipPath>
</defs>
</svg>
