<svg width="109" height="109" viewBox="0 0 109 109" fill="none" xmlns="http://www.w3.org/2000/svg">
<path fill-rule="evenodd" clip-rule="evenodd" d="M62.8452 43.2593H72.4679V53.0522H77.3218C79.5358 53.0522 81.835 52.6265 83.9639 51.9452C84.9858 51.6046 86.178 51.0937 87.1999 50.4976C85.8374 48.7093 85.1561 46.4952 84.9858 44.2812C84.7304 41.3007 85.3264 37.3835 87.3702 35.0843L88.3921 33.8921L89.5843 34.8288C92.6499 37.2983 95.1194 40.6194 95.6304 44.5366C99.2921 43.4296 103.55 43.6851 106.786 45.5585L108.063 46.3249L107.382 47.6874C104.657 52.9671 98.9514 54.6702 93.4163 54.3296C85.071 75.0226 67.0179 84.8155 45.0476 84.8155C33.7218 84.8155 23.3327 80.5577 17.3718 70.5093L17.2866 70.339L16.4351 68.5507C14.3913 64.1226 13.7952 59.2687 14.221 54.4147L14.3913 52.9671H22.5663V43.2593H32.189V33.7218H51.3491V24.0991H62.8452V43.2593Z" fill="#3A4D54"/>
<path d="M94.0125 46.921C94.6938 41.8968 90.9469 37.9796 88.5625 36.1062C85.9227 39.1718 85.4969 47.3468 89.6695 50.7531C87.2852 52.7968 82.4313 54.7554 77.3219 54.7554H15.8391C15.3281 60.0351 16.2649 64.889 18.3938 69.0617L19.075 70.339C19.5008 71.1054 20.0117 71.7867 20.5227 72.5531C23.0774 72.7234 25.3766 72.8085 27.5055 72.7234C31.6781 72.6382 35.0844 72.1273 37.7242 71.2757C38.15 71.1054 38.4906 71.3609 38.661 71.7015C38.8313 72.1273 38.5758 72.4679 38.2352 72.6382C37.8945 72.7234 37.5539 72.8937 37.1281 72.9789C35.0844 73.5749 32.8703 73.9156 30.0602 74.0859H29.5492C28.4422 74.171 27.25 74.171 25.9727 74.171C24.6102 74.171 23.3328 74.171 21.8 74.0859C26.9094 79.8765 34.9141 83.2828 44.9625 83.2828C66.2516 83.2828 84.3047 73.8304 92.2242 52.7117C97.9297 53.3078 103.38 51.8601 105.849 47.0062C102.017 44.707 96.9078 45.4734 94.0125 46.921Z" fill="#636363"/>
<path d="M94.0125 46.921C94.6937 41.8968 90.9468 37.9796 88.5625 36.1062C85.9226 39.1718 85.4968 47.3468 89.6695 50.7531C87.2851 52.7968 82.4312 54.7554 77.3218 54.7554H19.4156C19.1601 62.8453 22.1406 68.9765 27.5054 72.6382C31.6781 72.5531 35.0843 72.0421 37.7242 71.1906C38.1499 71.0203 38.4906 71.2757 38.6609 71.6164C38.8312 72.0421 38.5757 72.3828 38.2351 72.5531C37.8945 72.6382 37.5539 72.8085 37.1281 72.8937C35.0843 73.4898 32.6999 73.9156 29.8898 74.0859L29.8046 74.0007C37.0429 77.7476 47.5171 77.6624 59.6093 73.064C73.064 67.8695 85.6671 57.9914 94.4382 46.7507C94.2679 46.8359 94.0976 46.8359 94.0125 46.921Z" fill="#537789"/>
<path d="M15.9243 61.1421C16.2649 63.9522 17.1165 66.5921 18.3938 69.0616L19.0751 70.339C19.5009 71.1054 20.0118 71.7866 20.5228 72.553C23.0774 72.7233 25.3767 72.8085 27.5056 72.7233C31.6782 72.6382 35.0845 72.1272 37.7243 71.2757C38.1501 71.1054 38.4907 71.3608 38.661 71.7015C38.8313 72.1272 38.5759 72.4679 38.2353 72.6382C37.8946 72.7233 37.554 72.8936 37.1282 72.9788C35.0845 73.5749 32.7001 74.0007 29.8899 74.171H29.5493C28.4423 74.2561 27.2501 74.2561 26.0579 74.2561C24.6954 74.2561 23.3329 74.2561 21.8853 74.171C26.9946 79.9616 35.0845 83.3679 45.1329 83.3679C63.3563 83.3679 79.1954 76.4702 88.3923 61.2272H15.9243V61.1421Z" fill="#658D9C"/>
<path d="M20.0117 61.1421C21.1188 66.0812 23.6734 69.9983 27.5055 72.6382C31.6781 72.553 35.0844 72.0421 37.7242 71.1905C38.15 71.0202 38.4906 71.2757 38.6609 71.6163C38.8313 72.0421 38.5758 72.3827 38.2352 72.553C37.8945 72.6382 37.5539 72.8085 37.1281 72.8936C35.0844 73.4897 32.7 73.9155 29.8047 74.0858C37.043 77.8327 47.5172 77.7476 59.5242 73.1491C66.7625 70.339 73.8305 66.1663 80.132 61.1421H20.0117Z" fill="#658D9C"/>
<path fill-rule="evenodd" clip-rule="evenodd" d="M24.1843 44.8773H32.5296V53.2227H24.1843V44.8773ZM24.8656 45.5586H25.5468V52.4562H24.8656V45.5586ZM26.0578 45.5586H26.739V52.4562H26.0578V45.5586ZM27.3351 45.5586H28.0164V52.4562H27.3351V45.5586ZM28.6125 45.5586H29.2937V52.4562H28.6125V45.5586ZM29.8898 45.5586H30.571V52.4562H29.8898V45.5586ZM31.1671 45.5586H31.8484V52.4562H31.1671V45.5586ZM33.7218 35.3398H42.0671V43.6852H33.7218V35.3398ZM34.4882 36.0211H35.1695V42.9188H34.4882V36.0211ZM35.6804 36.0211H36.3617V42.9188H35.6804V36.0211ZM36.9578 36.0211H37.639V42.9188H36.9578V36.0211ZM38.2351 36.0211H38.9164V42.9188H38.2351V36.0211ZM39.4273 36.0211H40.1085V42.9188H39.4273V36.0211ZM40.7046 36.0211H41.3859V42.9188H40.7046V36.0211Z" fill="#CFE8EE"/>
<path fill-rule="evenodd" clip-rule="evenodd" d="M33.7219 44.8774H42.0672V53.2228H33.7219V44.8774ZM34.4883 45.5587H35.1696V52.4563H34.4883V45.5587ZM35.6805 45.5587H36.3618V52.4563H35.6805V45.5587ZM36.9579 45.5587H37.6391V52.4563H36.9579V45.5587ZM38.2352 45.5587H38.9165V52.4563H38.2352V45.5587ZM39.4274 45.5587H40.1086V52.4563H39.4274V45.5587ZM40.7047 45.5587H41.386V52.4563H40.7047V45.5587Z" fill="#3A4D54"/>
<path fill-rule="evenodd" clip-rule="evenodd" d="M43.3445 44.8774H51.6898V53.2228H43.3445V44.8774ZM44.0257 45.5587H44.707V52.4563H44.0257V45.5587ZM45.3031 45.5587H45.9843V52.4563H45.3031V45.5587ZM46.5804 45.5587H47.2617V52.4563H46.5804V45.5587ZM47.7726 45.5587H48.4539V52.4563H47.7726V45.5587ZM49.0499 45.5587H49.7312V52.4563H49.0499V45.5587ZM50.3273 45.5587H51.0085V52.4563H50.3273V45.5587Z" fill="#CFE8EE"/>
<path fill-rule="evenodd" clip-rule="evenodd" d="M43.3445 35.3398H51.6898V43.6852H43.3445V35.3398ZM44.0257 36.0211H44.707V42.9188H44.0257V36.0211ZM45.3031 36.0211H45.9843V42.9188H45.3031V36.0211ZM46.5804 36.0211H47.2617V42.9188H46.5804V36.0211ZM47.7726 36.0211H48.4539V42.9188H47.7726V36.0211ZM49.0499 36.0211H49.7312V42.9188H49.0499V36.0211ZM50.3273 36.0211H51.0085V42.9188H50.3273V36.0211ZM52.9671 44.8773H61.3124V53.2227H52.9671V44.8773ZM53.6484 45.5586H54.3296V52.4562H53.6484V45.5586ZM54.9257 45.5586H55.607V52.4562H54.9257V45.5586ZM56.1179 45.5586H56.7992V52.4562H56.1179V45.5586ZM57.3953 45.5586H58.0765V52.4562H57.3953V45.5586ZM58.6726 45.5586H59.3539V52.4562H58.6726V45.5586ZM59.95 45.5586H60.6312V52.4562H59.95V45.5586Z" fill="#3A4D54"/>
<path fill-rule="evenodd" clip-rule="evenodd" d="M52.9673 35.3398H61.3126V43.6852H52.9673V35.3398ZM53.6485 36.0211H54.3298V42.9188H53.6485V36.0211ZM54.9259 36.0211H55.6071V42.9188H54.9259V36.0211ZM56.1181 36.0211H56.7993V42.9188H56.1181V36.0211ZM57.3954 36.0211H58.0767V42.9188H57.3954V36.0211ZM58.6728 36.0211H59.354V42.9188H58.6728V36.0211ZM59.9501 36.0211H60.6313V42.9188H59.9501V36.0211Z" fill="#CFE8EE"/>
<path fill-rule="evenodd" clip-rule="evenodd" d="M52.9673 25.7173H61.3126V34.0626H52.9673V25.7173ZM53.6485 26.3985H54.3298V33.2962H53.6485V26.3985ZM54.9259 26.3985H55.6071V33.2962H54.9259V26.3985ZM56.1181 26.3985H56.7993V33.2962H56.1181V26.3985ZM57.3954 26.3985H58.0767V33.2962H57.3954V26.3985ZM58.6728 26.3985H59.354V33.2962H58.6728V26.3985ZM59.9501 26.3985H60.6313V33.2962H59.9501V26.3985Z" fill="#3A4D54"/>
<path fill-rule="evenodd" clip-rule="evenodd" d="M62.5898 44.8774H70.9352V53.2228H62.5898V44.8774ZM63.2711 45.5587H63.9523V52.4563H63.2711V45.5587ZM64.4633 45.5587H65.1445V52.4563H64.4633V45.5587ZM65.7406 45.5587H66.4219V52.4563H65.7406V45.5587ZM67.018 45.5587H67.6992V52.4563H67.018V45.5587ZM68.2953 45.5587H68.9766V52.4563H68.2953V45.5587ZM69.5727 45.5587H70.2539V52.4563H69.5727V45.5587Z" fill="#CFE8EE"/>
<path fill-rule="evenodd" clip-rule="evenodd" d="M41.5563 66.6772C42.8336 66.6772 43.8555 67.6991 43.8555 68.9765C43.8555 70.2538 42.8336 71.2757 41.5563 71.2757C40.279 71.2757 39.2571 70.2538 39.2571 68.9765C39.2571 67.6991 40.279 66.6772 41.5563 66.6772Z" fill="#D4EEF1"/>
<path fill-rule="evenodd" clip-rule="evenodd" d="M41.5563 67.3586C41.7266 67.3586 41.9821 67.3586 42.1524 67.4438C41.9821 67.529 41.8118 67.7844 41.8118 68.0399C41.8118 68.3805 42.1524 68.7211 42.493 68.7211C42.7485 68.7211 43.004 68.5508 43.0891 68.3805C43.1743 68.5508 43.1743 68.8063 43.1743 68.9766C43.1743 69.9133 42.4079 70.5946 41.5563 70.5946C40.6196 70.5946 39.9383 69.8282 39.9383 68.9766C39.9383 68.1251 40.6196 67.3586 41.5563 67.3586ZM0.936768 61.9938H107.723C105.423 61.3977 100.399 60.6313 101.166 57.5657C96.9079 62.4196 86.7743 60.9719 84.1344 58.5876C81.2391 62.7602 64.5485 61.1422 63.4415 57.9063C59.8649 62.1641 48.7094 62.1641 45.1329 57.9063C43.9407 61.1422 27.25 62.7602 24.4399 58.5876C21.8852 60.9719 11.6665 62.4196 7.40864 57.5657C8.34536 60.5461 3.23599 61.3977 0.936768 61.9938Z" fill="#3A4D54"/>
<path d="M47.6875 83.2829C41.982 80.5579 38.9164 76.8961 37.1281 72.8938C34.9992 73.4899 32.4445 73.9157 29.5492 74.086C28.4421 74.1711 27.25 74.1711 26.0578 74.1711C24.6101 74.1711 23.1625 74.1711 21.6296 74.086C26.739 79.1954 33.2109 83.1977 45.0476 83.2829H47.6875Z" fill="#BFDBE0"/>
<path d="M39.2571 76.5555C38.4907 75.4485 37.7243 74.1711 37.1282 72.8938C34.9993 73.4899 32.4446 73.9157 29.5493 74.086C31.5079 75.1079 34.4032 76.1297 39.2571 76.5555Z" fill="#D4EEF1"/>
</svg>
