<svg width="121" height="133" viewBox="0 0 121 133" fill="none" xmlns="http://www.w3.org/2000/svg">
<path d="M110.28 25.4036L71.1997 2.85564C64.6002 -0.952009 56.4 -0.951749 49.8003 2.85564L10.7199 25.4036C4.10751 29.2182 0 36.3324 0 43.9695V89.0303C0 96.6674 4.10751 103.782 10.7197 107.596L49.8003 130.144C56.4011 133.953 64.601 133.951 71.1997 130.144L110.28 107.596C116.892 103.782 121 96.6674 121 89.0303V43.9695C121 36.3327 116.892 29.2185 110.28 25.4036ZM110.614 89.0303C110.614 92.9642 108.498 96.6287 105.092 98.5936L66.0112 121.141C62.6115 123.103 58.3882 123.103 54.9885 121.141L15.9079 98.5936C12.5019 96.6284 10.3863 92.9642 10.3863 89.0303V43.9695C10.3863 40.0359 12.5019 36.3714 15.9081 34.4065L54.9885 11.8586C58.3885 9.89684 62.6131 9.89762 66.0115 11.8586L105.092 34.4062C108.498 36.3714 110.614 40.0356 110.614 43.9695V89.0303Z" fill="#445964"/>
<path d="M55.5649 62.5332L36.2773 46.2035C34.0881 44.3498 30.811 44.6229 28.9584 46.8137C27.1057 49.0046 27.3789 52.2831 29.5683 54.1368L44.1709 66.5001L29.5683 78.8631C27.3789 80.7168 27.106 83.9953 28.9584 86.1861C30.8154 88.3817 34.0933 88.6453 36.2773 86.7961L55.5649 70.4664C58.0186 68.3891 58.0116 64.6048 55.5649 62.5332Z" fill="#445964"/>
<path d="M88.0771 77.6333H64.7092C61.8411 77.6333 59.5161 79.9595 59.5161 82.8294C59.5161 85.6993 61.8411 88.0255 64.7092 88.0255H88.0771C90.945 88.0255 93.2702 85.6993 93.2702 82.8294C93.2702 79.9595 90.9452 77.6333 88.0771 77.6333Z" fill="#445964"/>
</svg>
