<svg width="78" height="80" viewBox="0 0 78 80" fill="none" xmlns="http://www.w3.org/2000/svg">
<path d="M77.5015 0.563859C77.1454 0.203805 76.6336 0 76.0994 0H1.90055C1.36643 0 0.854559 0.203805 0.498475 0.563859C0.134972 0.923913 -0.0430696 1.40625 0.00885968 1.89538L6.69284 70.462C6.75961 71.1821 7.30857 71.7799 8.06525 71.9837L38.4733 79.9321C38.6365 79.9796 38.8145 80 38.9926 80C39.1706 80 39.3412 79.9796 39.5119 79.9321L69.9422 71.9837C70.6988 71.7799 71.2404 71.1821 71.3146 70.462L77.9911 1.89538C78.0431 1.40625 77.865 0.923913 77.5015 0.563859ZM61.5 24.2052H25.773L26.6261 33.0571H60.6395L58.0876 59.2187L38.9852 64.5041L38.7997 64.4497L19.9199 59.212L18.8887 48.553H28.1395L28.54 52.6902L39.0964 54.7147L49.46 52.6902L50.5653 41.4946H18.1988L15.684 15.7473H62.3235L61.5 24.2052Z" fill="#445964"/>
</svg>
