<svg width="84" height="81" viewBox="0 0 84 81" fill="none" xmlns="http://www.w3.org/2000/svg">
<path d="M0.424805 80.7635V0.403564H83.2691V80.7635H0.424805Z" fill="#445964"/>
<path d="M54.5911 60.5553C56.1835 63.0643 57.914 65.4684 61.5799 65.4684C64.6589 65.4684 66.2744 63.984 66.2744 61.9303C66.2744 59.4726 64.6037 58.5998 61.2163 57.169L59.3592 56.4011C53.9997 54.1957 50.435 51.4322 50.435 45.5949C50.435 40.2153 54.6808 36.1214 61.3153 36.1214C66.0397 36.1214 69.434 37.7085 71.8825 41.8649L66.0972 45.4521C64.8246 43.2466 63.4485 42.3783 61.3153 42.3783C59.1383 42.3783 57.7599 43.7109 57.7599 45.4521C57.7599 47.6039 59.1406 48.4745 62.3278 49.8071L64.1849 50.575C70.5018 53.1845 74.0641 55.8497 74.0641 61.841C74.0641 68.2966 68.8081 71.8347 61.7525 71.8347C54.8511 71.8347 50.9321 68.4752 48.7505 64.3166L54.5911 60.5553ZM27.929 60.7383C29.0934 62.7607 30.8631 64.3166 33.4082 64.3166C35.8429 64.3166 37.2444 63.3835 37.2444 59.7561V36.1191H44.9144V60.899C44.9144 68.4149 40.4201 71.8347 33.857 71.8347C27.9267 71.8347 23.6464 67.9372 21.9021 64.3166L27.929 60.7383Z" fill="white"/>
</svg>
