<svg width="89" height="90" viewBox="0 0 89 90" fill="none" xmlns="http://www.w3.org/2000/svg">
<path d="M33.1086 68.9905C33.1086 68.9905 29.794 70.941 35.4706 71.5991C42.3486 72.3937 45.8634 72.2797 53.4409 70.8313C53.4409 70.8313 55.4372 72.0934 58.2198 73.1875C41.2271 80.5492 19.7635 72.7607 33.1086 68.9905ZM31.031 59.3823C31.031 59.3823 27.3125 62.166 32.9939 62.7608C40.3412 63.5279 46.1422 63.5905 56.1853 61.6358C56.1853 61.6358 57.5711 63.0597 59.7537 63.8373C39.2127 69.9123 16.3342 64.3154 31.031 59.3823Z" fill="black"/>
<path d="M48.5341 43.0812C52.7233 47.9574 47.4355 52.3413 47.4355 52.3413C47.4355 52.3413 58.0661 46.793 53.185 39.8419C48.6245 33.3626 45.1284 30.1444 64.0562 19.0435C64.0562 19.0442 34.3448 26.5458 48.5341 43.0812Z" fill="black"/>
<path d="M71.0075 76.0984C71.0075 76.0984 73.4613 78.1445 68.3041 79.7258C58.4988 82.7296 27.4851 83.6352 18.8716 79.8461C15.7767 78.4834 21.5826 76.5941 23.4092 76.1954C25.3136 75.7785 26.4011 75.8544 26.4011 75.8544C22.9572 73.4026 4.14207 80.6708 16.8454 82.7556C51.4866 88.434 79.9916 80.1983 71.0075 76.0984ZM34.7045 49.4254C34.7045 49.4254 18.9307 53.2145 29.1191 54.5919C33.4217 55.1741 41.9949 55.0405 49.9861 54.3627C56.5151 53.8079 63.067 52.6232 63.067 52.6232C63.067 52.6232 60.7669 53.6209 59.101 54.7698C43.0796 59.0315 12.1368 57.0465 21.0458 52.69C28.5774 49.0063 34.7045 49.4254 34.7045 49.4254ZM63.0017 65.4194C79.2866 56.8644 71.7564 48.6428 66.5005 49.7502C65.2155 50.0209 64.6391 50.2565 64.6391 50.2565C64.6391 50.2565 65.1175 49.4978 66.0298 49.1715C76.4268 45.4766 84.4215 60.0721 62.6763 65.8532C62.6763 65.8518 62.9259 65.6233 63.0017 65.4194Z" fill="black"/>
<path d="M53.1851 1.11597C53.1851 1.11597 62.2019 10.2397 44.6307 24.2649C30.5395 35.5192 41.4176 41.9345 44.6258 49.2674C36.3996 41.7629 30.3657 35.1557 34.4131 29.0068C40.3566 19.9829 56.8223 15.606 53.1851 1.11597Z" fill="black"/>
<path d="M36.3051 88.6086C51.9329 89.619 75.9379 88.0461 76.506 80.5676C76.506 80.5676 75.4136 83.4026 63.5892 85.6519C50.2489 88.1916 33.7922 87.8956 24.0349 86.2665C24.0349 86.2672 26.0339 87.9406 36.3051 88.6086Z" fill="black"/>
</svg>
