<svg width="98" height="98" viewBox="0 0 98 98" fill="none" xmlns="http://www.w3.org/2000/svg">
<path d="M71.8224 70.5231C72.4234 65.5213 72.2435 64.7871 75.969 65.5979L76.9146 65.6806C79.7796 65.8107 83.5273 65.2197 85.7292 64.1968C90.4692 61.9971 93.2791 58.326 88.6065 59.2899C77.9459 61.4895 77.2132 57.8796 77.2132 57.8796C88.4702 41.1775 93.1757 19.975 89.1133 14.7849C78.0347 0.629226 58.8581 7.32309 58.5373 7.49612L58.4347 7.51526C56.3285 7.07809 53.9711 6.81701 51.3228 6.77413C46.4986 6.69451 42.8382 8.03894 40.0612 10.1444C40.0612 10.1444 5.85081 -3.94998 7.44254 27.8694C7.78095 34.6383 17.1445 79.0882 28.3135 65.6622C32.3958 60.753 36.3403 56.6018 36.3403 56.6018C38.2988 57.9026 40.6446 58.5671 43.1038 58.3283L43.2945 58.1659C43.2347 58.7754 43.2608 59.3718 43.3703 60.0777C40.4938 63.2926 41.3391 63.8568 35.5869 65.0405C29.7666 66.2395 33.1859 68.3748 35.4177 68.9329C38.1242 69.6098 44.3847 70.5683 48.6156 64.647L48.4471 65.3222C49.5757 66.2257 49.4999 71.8125 49.6591 75.8037C49.8191 79.7956 50.0863 83.5204 50.9002 85.717C51.714 87.9128 52.6741 93.5692 60.2339 91.9492C66.5519 90.5986 71.3822 88.6501 71.8224 70.5231Z" fill="#445964"/>
<path d="M57.7726 95.8991C54.4291 95.8991 52.2517 94.6059 50.9294 93.3572C48.9335 91.4738 48.1418 89.0475 47.6686 87.5982L47.4642 86.9933C46.5118 84.4224 46.1887 80.7206 45.9973 75.9538C45.9682 75.2379 45.9483 74.5006 45.9261 73.7189C45.91 73.147 45.8901 72.4296 45.861 71.6793C44.6564 72.2536 43.3778 72.6577 42.062 72.8798C39.7046 73.2825 37.1704 73.1524 34.5282 72.4916C32.6639 72.0254 30.7269 71.0591 29.6229 69.5669C26.4049 72.3852 23.3356 72.0032 21.6634 71.445C18.7135 70.4612 16.0736 67.6965 13.5922 62.9948C11.8244 59.6452 10.1147 55.2811 8.50999 50.0228C5.71546 40.8659 3.93997 31.2214 3.78225 28.0547C3.28613 18.1437 5.95433 11.0556 11.7111 6.98934C20.7921 0.574932 34.5512 4.34717 39.5676 6.05987C42.9378 4.02867 46.903 3.04025 51.3835 3.11145C53.7898 3.1505 56.0813 3.36181 58.2098 3.74156C60.4301 3.04331 64.8156 2.0411 69.8358 2.10389C79.0853 2.21414 86.75 5.8187 91.9999 12.5279C95.7468 17.3146 93.894 27.3664 92.4569 32.9325C90.4342 40.7618 86.8901 49.0888 82.5367 56.3377C83.7189 56.3461 85.4316 56.2045 87.8663 55.7015C92.6698 54.71 94.0747 57.2855 94.456 58.4386C95.9834 63.0645 89.3439 66.5603 87.2729 67.522C84.6192 68.7538 80.2927 69.5042 76.7494 69.3418L76.5947 69.3319L75.6637 69.25L75.5719 70.0263L75.483 70.785C75.2449 79.9718 73.9327 85.7898 71.2323 89.634C68.4018 93.6642 64.468 94.7935 61.0028 95.5362C59.8206 95.7888 58.7465 95.8991 57.7726 95.8991ZM50.7365 62.4635C52.8948 64.1907 53.0839 67.4408 53.2531 73.5145C53.2746 74.2725 53.2945 74.9899 53.3213 75.6598C53.4024 77.6887 53.5931 82.4394 54.3372 84.4469C54.4421 84.7309 54.5363 85.0188 54.6358 85.3243C55.465 87.8631 55.8807 89.1363 59.4662 88.3699C62.4758 87.7245 64.0232 87.1457 65.2344 85.4215C66.9946 82.9148 67.9791 77.8724 68.1598 70.4344L71.8218 70.5232L68.1851 70.0868L68.2923 69.1788C68.6406 66.1852 68.8918 64.023 70.8924 62.5929C72.4979 61.4459 74.3269 61.557 75.7839 61.8196C74.183 60.6099 73.7405 59.1912 73.6226 58.6093L73.3171 57.1049L74.1754 55.8316C79.119 48.4969 83.1952 39.4825 85.3604 31.0989C87.5853 22.4848 86.9069 17.9102 86.2286 17.0451C77.2486 5.57064 61.6765 10.3083 60.0503 10.8458L59.7755 10.9943L58.3974 11.2508L57.6914 11.1046C55.7452 10.7003 53.5831 10.4768 51.2656 10.4392C47.6242 10.378 44.6865 11.2386 42.2779 13.0661L40.6065 14.3332L38.6672 13.5347C34.5236 11.8403 22.3533 8.43407 15.9312 12.9827C12.3664 15.5077 10.7426 20.4552 11.1039 27.688C11.2234 30.076 12.8457 39.1157 15.5223 47.8829C19.2211 59.9989 22.5822 64.0238 23.9856 64.4916C24.2306 64.5743 24.866 64.0805 25.4984 63.321C28.1353 60.16 30.8657 57.0782 33.686 54.0799L35.8068 51.8481L38.3709 53.5516C39.4045 54.2384 40.5445 54.6281 41.7151 54.7016L47.8302 49.4861L46.9444 58.5266C46.9245 58.7295 46.9145 59.0059 46.9941 59.5189L47.2606 61.2323L46.1045 62.5247L45.9713 62.6748L49.3308 64.2252L50.7365 62.4635Z" fill="#445964"/>
<path d="M88.6065 59.2901C77.9452 61.4897 77.2125 57.8798 77.2125 57.8798C88.4694 41.1769 93.175 19.9737 89.1141 14.7851C78.0355 0.63019 58.8574 7.32405 58.5373 7.49785L58.434 7.51622C56.3277 7.07905 53.9704 6.81874 51.3206 6.77586C46.4964 6.697 42.8374 8.04067 40.0605 10.1461C40.0605 10.1461 5.84932 -3.94748 7.44029 27.8711C7.7787 34.6408 17.1423 79.0907 28.3112 65.6647C32.3935 60.7555 36.3373 56.6043 36.3373 56.6043C38.2965 57.9051 40.6416 58.5696 43.1 58.3308L43.2914 58.1684C43.2317 58.7779 43.2593 59.3743 43.368 60.0802C40.4908 63.2951 41.336 63.8593 35.5839 65.043C29.7636 66.242 33.1829 68.3773 35.4155 68.9354C38.1212 69.6122 44.3825 70.5708 48.6125 64.6495L48.4433 65.3247C49.5711 66.2282 50.3628 71.1986 50.2303 75.7043C50.0971 80.21 50.0083 83.3039 50.8972 85.7202C51.7853 88.1365 52.6704 93.5725 60.2317 91.9524C66.5496 90.5988 69.8234 87.0899 70.2797 81.2375C70.6028 77.0763 71.334 77.6919 71.3807 73.9717L71.9679 72.2108C72.6447 66.5704 72.0751 64.7513 75.9683 65.5973L76.9139 65.68C79.7788 65.8102 83.5281 65.2191 85.7293 64.1962C90.4685 61.9981 93.2791 58.3262 88.6065 59.2901Z" fill="black"/>
<path d="M58.1545 93.6413C51.8519 93.6413 49.8552 88.6502 49.0382 86.609C47.8423 83.6177 47.5843 72.0093 47.8508 62.4895C47.8547 62.329 47.8904 62.1708 47.9558 62.0241C48.0211 61.8774 48.1148 61.7451 48.2316 61.6348C48.3483 61.5245 48.4856 61.4384 48.6358 61.3814C48.7859 61.3244 48.9459 61.2977 49.1064 61.3028C49.2667 61.3072 49.4246 61.3431 49.5711 61.4086C49.7176 61.474 49.8497 61.5677 49.9599 61.6842C50.0701 61.8008 50.1563 61.9379 50.2134 62.0878C50.2706 62.2377 50.2977 62.3973 50.2931 62.5577C49.9861 73.5375 50.4217 83.4876 51.3068 85.7017C52.688 89.154 54.7827 92.1736 60.7048 90.9049C66.3268 89.6991 68.4323 87.5676 69.3702 82.1309C70.0899 77.959 71.5132 66.0903 71.6885 63.7482C71.7002 63.5882 71.7434 63.432 71.8156 63.2887C71.8878 63.1454 71.9876 63.0177 72.1092 62.913C72.2308 62.8083 72.3719 62.7286 72.5244 62.6786C72.6768 62.6285 72.8377 62.609 72.9977 62.6212C73.3206 62.6457 73.6207 62.7973 73.832 63.0427C74.0433 63.2882 74.1485 63.6075 74.1247 63.9304C73.9417 66.369 72.5253 78.2147 71.7781 82.5466C70.671 88.9679 67.8083 91.8803 61.217 93.2937C60.0969 93.5333 59.0794 93.6405 58.1545 93.6413ZM23.9801 69.263C23.4292 69.2611 22.8822 69.1707 22.36 68.995C18.2662 67.6292 14.3669 60.9621 10.77 49.1768C8.03213 40.206 6.29722 30.8424 6.14486 27.7991C5.69391 18.7769 8.01681 12.3939 13.0508 8.82841C23.0093 1.77241 39.7619 8.49154 40.4701 8.78094C40.7701 8.90349 41.0092 9.14019 41.1347 9.43899C41.2602 9.73778 41.2618 10.0742 41.1393 10.3742C41.0167 10.6742 40.78 10.9133 40.4812 11.0388C40.1824 11.1643 39.846 11.1659 39.546 11.0434C39.3845 10.9775 23.3201 4.54168 14.458 10.8252C10.1537 13.8769 8.1776 19.5472 8.58414 27.6773C8.712 30.2414 10.3328 39.3799 13.1059 48.4633C16.317 58.9845 19.9713 65.6232 23.1325 66.6775C23.6287 66.8429 25.1385 67.3459 27.2968 64.7504C29.8137 61.7276 32.425 58.7846 35.1268 55.9258C35.3529 55.7003 35.6583 55.5723 35.9775 55.5691C36.2968 55.5659 36.6047 55.6878 36.8352 55.9088C37.0658 56.1297 37.2007 56.4321 37.211 56.7512C37.2214 57.0703 37.1065 57.3809 36.8908 57.6163C36.8541 57.6546 33.1798 61.4958 29.1756 66.3131C27.2792 68.5939 25.4616 69.263 23.9801 69.263ZM77.1367 58.9692C76.9152 58.9689 76.698 58.9084 76.5082 58.7942C76.3184 58.68 76.1633 58.5164 76.0593 58.3208C75.9554 58.1252 75.9065 57.9051 75.918 57.6839C75.9295 57.4627 76.0009 57.2488 76.1245 57.0651C87.504 40.1792 91.4983 19.7761 88.0775 15.4044C83.7716 9.90258 77.6917 7.02919 70.0056 6.86305C64.3148 6.74055 59.7914 8.19371 59.0518 8.44713L58.8658 8.52293C58.1224 8.75644 57.552 8.34913 57.3368 7.87291C57.2142 7.60007 57.1956 7.29177 57.2846 7.00616C57.3736 6.72056 57.564 6.47739 57.82 6.32252C57.8552 6.30185 57.967 6.25438 58.1484 6.18777C59.4048 5.72763 63.997 4.34951 69.6848 4.41458C78.1894 4.50493 85.2148 7.7841 89.9999 13.8991C92.2639 16.7924 92.2693 23.458 90.0145 32.1876C87.7161 41.088 83.3911 50.653 78.1496 58.431C77.9153 58.7808 77.5294 58.9692 77.1367 58.9692ZM77.7186 66.7862C75.7754 66.7862 74.0336 66.5121 72.9908 65.8874C71.9189 65.245 71.7145 64.3722 71.6877 63.909C71.3953 58.7717 74.2296 57.8774 75.6751 57.4693C75.4737 57.1646 75.1874 56.8063 74.8911 56.4365C74.0481 55.383 72.8936 53.9406 72.0039 51.783C71.8646 51.4462 71.4282 50.6629 70.9229 49.7557C68.1827 44.8419 62.4811 34.617 66.1438 29.3808C67.8389 26.9576 71.2146 26.0037 76.1881 26.5358C74.725 22.0783 67.7578 8.13476 51.2256 7.86372C46.2537 7.78104 42.1759 9.30999 39.1119 12.4039C32.2519 19.332 32.5 31.8676 32.5038 31.9932C32.508 32.1535 32.4806 32.3132 32.4231 32.4629C32.3657 32.6127 32.2793 32.7497 32.1689 32.8661C32.0585 32.9825 31.9262 33.076 31.7797 33.1412C31.6331 33.2065 31.4752 33.2423 31.3148 33.2465C31.1544 33.2507 30.9948 33.2233 30.845 33.1658C30.6952 33.1084 30.5582 33.022 30.4419 32.9116C30.3255 32.8011 30.232 32.6689 30.1667 32.5223C30.1014 32.3758 30.0657 32.2178 30.0615 32.0575C30.0461 31.5009 29.7904 18.3459 37.3762 10.6843C40.9264 7.09886 45.5998 5.32874 51.2662 5.42138C61.8425 5.59518 68.6505 10.9722 72.4985 15.4518C76.6934 20.3342 78.7498 25.7196 78.9191 27.5173C79.0454 28.8541 78.086 29.1213 77.8923 29.1611L77.4513 29.1711C72.5705 28.3894 69.4391 28.9322 68.1444 30.7819C65.3583 34.764 70.7521 44.4361 73.0551 48.5666C73.6431 49.6201 74.0673 50.3819 74.2618 50.852C75.0182 52.6865 76.0051 53.9191 76.7975 54.9098C77.495 55.7811 78.0991 56.5368 78.315 57.4234C78.4153 57.5995 79.8386 59.705 88.2842 57.9616C90.4011 57.5252 91.6705 57.8981 92.0587 59.0718C92.822 61.3801 88.5391 64.0728 86.168 65.1738C84.0434 66.1615 80.6524 66.7862 77.7186 66.7862ZM74.1232 63.7076C74.3911 63.9779 75.7318 64.4442 78.5079 64.3247C80.9763 64.2191 83.5794 63.6824 85.1413 62.9573C87.1388 62.0294 88.4725 60.992 89.1631 60.2838L88.7803 60.3542C83.3803 61.469 79.5606 61.3204 77.4276 59.9124C77.2843 59.8177 77.1463 59.7152 77.0142 59.6054C76.783 59.6965 76.5693 59.7563 76.417 59.7991C75.2073 60.1383 73.9563 60.4897 74.1232 63.7076ZM39.2398 70.5332C37.8984 70.5332 36.4866 70.3502 35.0449 69.9896C33.5512 69.616 31.033 68.4913 31.0713 66.6438C31.115 64.5713 34.1292 63.9496 35.2639 63.7161C39.363 62.8716 39.6302 62.5332 40.9111 60.9062C41.2848 60.4323 41.7495 59.842 42.3834 59.1346C43.3244 58.0811 44.3526 57.5474 45.4398 57.5474C46.197 57.5474 46.8179 57.8039 47.2283 57.9746C48.536 58.5167 49.627 59.8275 50.0757 61.3947C50.4807 62.8088 50.287 64.1701 49.5321 65.2274C47.0537 68.698 43.4943 70.5332 39.2398 70.5332ZM33.7104 66.7487C34.0787 67.0335 34.8168 67.414 35.6383 67.6192C36.887 67.9316 38.0982 68.0901 39.2405 68.0901C42.7211 68.0901 45.5156 66.6492 47.5453 63.8072C47.9687 63.2146 47.8416 62.462 47.7283 62.0661C47.4909 61.237 46.9014 60.4828 46.2942 60.2309C45.965 60.0947 45.6917 59.9905 45.4406 59.9905C45.3058 59.9905 44.8954 59.9905 44.2048 60.763C43.7283 61.299 43.2702 61.8511 42.8313 62.4183C41.2358 64.4442 40.5046 65.1317 35.7577 66.1094C34.5993 66.3468 34.0052 66.5887 33.7104 66.7487ZM43.1039 61.1137C42.8122 61.1132 42.5304 61.0085 42.3092 60.8184C42.0881 60.6283 41.9422 60.3653 41.898 60.0771C41.8676 59.8743 41.8472 59.6701 41.8368 59.4653C38.7253 59.4071 35.7233 58.0719 33.444 55.6938C30.5622 52.6872 29.2507 48.5215 29.8463 44.2654C30.4933 39.6433 30.2513 35.5633 30.1212 33.3713C30.0852 32.7618 30.0592 32.3216 30.0607 32.0169C30.063 31.6303 30.0706 30.6051 33.4976 28.8679C34.7165 28.25 37.1603 27.172 39.8301 26.8956C44.2531 26.4386 47.1686 28.4085 48.0414 32.4433C50.3972 43.3367 48.2282 48.1547 46.6441 51.6735C46.3494 52.3289 46.0707 52.9476 45.8479 53.547L45.6511 54.0753C44.8143 56.3194 44.0908 58.2579 44.3128 59.7057C44.3372 59.8643 44.3301 60.0261 44.2919 60.1819C44.2537 60.3377 44.1852 60.4845 44.0903 60.6138C43.9954 60.7432 43.8759 60.8525 43.7387 60.9357C43.6015 61.0188 43.4493 61.0741 43.2907 61.0984L43.1039 61.1137ZM32.5115 32.3553L32.5589 33.2273C32.6937 35.5043 32.9448 39.7413 32.2649 44.6045C31.7742 48.1149 32.846 51.5411 35.2072 54.0034C37.073 55.9496 39.5284 57.0237 42.0519 57.0237H42.104C42.3865 55.8332 42.8558 54.576 43.3611 53.2216L43.5564 52.6964C43.8083 52.0196 44.103 51.3642 44.4154 50.6706C45.9398 47.2835 47.8377 43.0672 45.6519 32.9601C45.2193 30.958 44.1696 29.7996 42.4447 29.4176C38.9014 28.6351 33.6208 31.3003 32.5115 32.3553ZM39.8844 31.837C39.8232 32.2688 40.6753 33.4218 41.787 33.5757C42.8964 33.7311 43.8458 32.8292 43.9063 32.3974C43.9667 31.9656 43.1154 31.4894 42.0037 31.3347C40.8928 31.1801 39.9434 31.4052 39.8844 31.837ZM42.042 34.0006L41.7303 33.9792C41.0413 33.8835 40.3446 33.4494 39.8676 32.817C39.6999 32.5949 39.4266 32.1647 39.4809 31.7803C39.5583 31.2168 40.2458 30.8792 41.3184 30.8792C41.5581 30.8792 41.8077 30.8968 42.0588 30.932C42.6453 31.0132 43.1896 31.1824 43.5916 31.4067C44.2883 31.7956 44.3396 32.2297 44.3082 32.4541C44.2225 33.0765 43.2325 34.0006 42.042 34.0006ZM40.2894 31.9089C40.3239 32.1754 40.9839 33.0543 41.8429 33.173L42.0427 33.1868C42.8359 33.1868 43.4285 32.5628 43.4982 32.3584C43.4247 32.219 42.9148 31.873 41.9478 31.7382C41.7396 31.7083 41.5295 31.6932 41.3192 31.693C40.6975 31.693 40.3675 31.8331 40.2894 31.9089ZM73.6745 30.9557C73.735 31.3875 72.8836 32.5406 71.7727 32.6952C70.6626 32.8499 69.7124 31.9488 69.6512 31.5169C69.593 31.0851 70.4443 30.6081 71.5545 30.4543C72.6647 30.2988 73.6133 30.5247 73.6745 30.9557ZM71.5162 32.9157C70.4474 32.9157 69.5248 32.0843 69.449 31.5445C69.361 30.8968 70.4275 30.4045 71.5254 30.2521C71.7673 30.2184 72.007 30.2016 72.2374 30.2016C73.1853 30.2016 73.8131 30.4795 73.8759 30.9282C73.9165 31.2183 73.6937 31.6662 73.3101 32.0705C73.0567 32.3362 72.5245 32.7963 71.7995 32.8966L71.5162 32.9157ZM72.2382 30.6089C72.0269 30.6089 71.8064 30.625 71.5828 30.6556C70.4796 30.8095 69.8211 31.252 69.8533 31.4894C69.89 31.7505 70.5944 32.5092 71.517 32.5092L71.7444 32.4931C72.3469 32.4097 72.7994 32.0161 73.0153 31.7895C73.3545 31.4335 73.4892 31.0981 73.4732 30.9841C73.4517 30.8325 73.0444 30.6089 72.2382 30.6089ZM75.2739 55.7543C75.0526 55.7545 74.8354 55.6944 74.6456 55.5806C74.4557 55.4667 74.3005 55.3034 74.1963 55.1081C74.0922 54.9128 74.0431 54.6929 74.0544 54.4719C74.0656 54.2508 74.1368 54.037 74.2602 53.8533C76.8618 49.9677 76.3856 46.0056 75.9255 42.1737C75.7287 40.5414 75.5266 38.8532 75.5786 37.2331C75.6322 35.5663 75.8443 34.1913 76.0487 32.8614C76.2914 31.2857 76.5211 29.7973 76.4262 28.0303C76.4175 27.8701 76.4405 27.7098 76.4938 27.5585C76.5471 27.4073 76.6297 27.268 76.7368 27.1486C76.844 27.0292 76.9736 26.9321 77.1182 26.8628C77.2629 26.7936 77.4198 26.7534 77.58 26.7448C77.7401 26.7362 77.9004 26.7591 78.0517 26.8124C78.203 26.8657 78.3423 26.9483 78.4617 27.0555C78.581 27.1626 78.6781 27.2922 78.7474 27.4369C78.8167 27.5815 78.8568 27.7384 78.8655 27.8986C78.9742 29.9183 78.7146 31.6027 78.4635 33.2327C78.2698 34.4906 78.0692 35.7914 78.021 37.3112C77.9743 38.746 78.1573 40.2696 78.351 41.882C78.841 45.9566 79.396 50.5749 76.2907 55.2123C76.1788 55.3793 76.0275 55.5161 75.8502 55.6107C75.6728 55.7052 75.4749 55.7546 75.2739 55.7543Z" fill="white"/>
</svg>
