<svg width="81" height="81" viewBox="0 0 81 81" fill="none" xmlns="http://www.w3.org/2000/svg">
<path d="M39.6196 0C24.3014 0 21.1304 7.91016 21.1304 12.4912V21.1304H38.7391V22.8913H12.4912C6.67892 22.8913 0 27.4723 0 40.5C0 53.5277 6.67892 58.1087 12.4912 58.1087H22.8913V47.5435C22.8913 43.6709 26.0622 40.5 29.9348 40.5H51.0652C54.0573 40.5 56.3478 38.2095 56.3478 35.2174V12.4912C56.3478 6.32813 50.5356 0 39.6196 0ZM31.6957 8.80435C33.6354 8.80435 35.2174 10.3864 35.2174 12.3261C35.2174 14.2658 33.6354 15.8478 31.6957 15.8478C29.7559 15.8478 28.1739 14.2658 28.1739 12.3261C28.1739 10.3864 29.7559 8.80435 31.6957 8.80435ZM58.1087 22.8913V35.2174C58.1087 39.0899 54.9378 42.2609 51.0652 42.2609H29.9348C26.9427 42.2609 24.6522 44.5514 24.6522 47.5435V68.5088C24.6522 74.6719 30.4644 81 41.3804 81C56.6986 81 59.8696 73.0898 59.8696 68.5088V59.8696H42.2609V58.1087H68.5088C74.3211 58.1087 81 53.5277 81 40.5C81 27.4723 74.3211 22.8913 68.5088 22.8913H58.1087ZM49.3043 65.1522C51.2441 65.1522 52.8261 66.7342 52.8261 68.6739C52.8261 70.6136 51.2441 72.1957 49.3043 72.1957C47.3646 72.1957 45.7826 70.6136 45.7826 68.6739C45.7826 66.7342 47.3646 65.1522 49.3043 65.1522Z" fill="black"/>
</svg>
