<svg width="84" height="73" viewBox="0 0 84 73" fill="none" xmlns="http://www.w3.org/2000/svg">
<path d="M48.9745 36.9642C48.9745 40.5618 45.9738 43.4725 42.265 43.4725C38.5561 43.4725 35.5554 40.5618 35.5554 36.9642C35.5554 33.3665 38.5561 30.4558 42.265 30.4558C45.9738 30.4558 48.9745 33.3665 48.9745 36.9642Z" fill="black"/>
<path d="M42.265 43.9726C38.2816 43.9726 35.0393 40.8285 35.0393 36.9636C35.0393 33.0986 38.2816 29.9546 42.265 29.9546C46.2484 29.9546 49.4907 33.0986 49.4907 36.9636C49.4907 40.8285 46.2484 43.9726 42.265 43.9726ZM42.265 30.9559C38.8493 30.9559 36.0715 33.6503 36.0715 36.9636C36.0715 40.2768 38.8493 42.9713 42.265 42.9713C45.6807 42.9713 48.4584 40.2768 48.4584 36.9636C48.4584 33.6503 45.6807 30.9559 42.265 30.9559Z" fill="black"/>
<path d="M26.2386 72.512C24.4725 72.512 22.8642 72.1195 21.4573 71.3465C19.1038 70.0519 17.477 67.821 16.6202 64.718C15.6241 61.1064 15.7428 56.3092 16.9629 50.8222C7.1236 47.539 1.4917 42.5015 1.4917 36.9634C1.4917 31.4243 7.12257 26.3878 16.9619 23.1056C15.7418 17.6176 15.622 12.8204 16.6181 9.2088C17.4749 6.10481 19.1017 3.87395 21.4542 2.58029C22.8601 1.8073 24.4694 1.41479 26.2355 1.41479C30.765 1.41479 36.4454 4.1483 42.2672 9.12269C48.0891 4.15331 53.7674 1.4218 58.2917 1.4218C60.0579 1.4218 61.6661 1.81431 63.0731 2.5873C65.4235 3.87996 67.0513 6.10682 67.9081 9.2068C68.9052 12.8174 68.7855 17.6156 67.5644 23.1046C77.4057 26.3868 83.0387 31.4243 83.0387 36.9634C83.0387 42.5025 77.4057 47.54 67.5644 50.8232C68.7845 56.3112 68.9042 61.1084 67.9071 64.719C67.0503 67.82 65.4245 70.0469 63.0762 71.3395C61.6682 72.1125 60.0589 72.505 58.2938 72.505C53.7664 72.505 48.086 69.7735 42.2662 64.8062C36.4444 69.7795 30.765 72.512 26.2386 72.512ZM20.936 51.9887C19.9131 56.7118 19.7985 60.7469 20.6098 63.6827C21.1693 65.7113 22.1386 67.1181 23.4939 67.8631C24.2712 68.2906 25.195 68.5079 26.2386 68.5079C29.742 68.5079 34.3541 66.223 39.2665 62.0626C36.8046 59.6575 34.4016 56.9351 32.1152 53.9612C28.1607 53.5447 24.4033 52.8818 20.936 51.9887ZM45.2649 62.0606C50.1763 66.217 54.7893 68.4999 58.2928 68.5009C59.3364 68.5009 60.2602 68.2836 61.0396 67.8561C62.3908 67.1131 63.358 65.7093 63.9164 63.6837C64.7278 60.7459 64.6142 56.7118 63.5913 51.9897C60.1209 52.8828 56.3625 53.5457 52.409 53.9622C50.1236 56.9361 47.7237 59.6575 45.2649 62.0606ZM37.6882 54.3788C39.187 56.1571 40.7209 57.8162 42.2652 59.3251C43.8053 57.8172 45.3402 56.1581 46.838 54.3788C45.2989 54.4499 43.7661 54.4859 42.2652 54.4859C40.7633 54.4859 39.2294 54.4499 37.6882 54.3788ZM34.3675 50.1594C36.9429 50.3726 39.5989 50.4808 42.2652 50.4808C44.9335 50.4808 47.5864 50.3726 50.1577 50.1604C51.6916 48.0737 53.1543 45.8869 54.5075 43.657C55.8164 41.4992 57.0479 39.2473 58.1689 36.9624C57.051 34.6835 55.8206 32.4326 54.5086 30.2698C53.1584 28.045 51.6957 25.8582 50.1577 23.7665C47.5884 23.5542 44.9356 23.4461 42.2652 23.4461C39.5937 23.4461 36.9399 23.5542 34.3716 23.7675C32.8336 25.8562 31.3689 28.043 30.0166 30.2708C28.7057 32.4326 27.4752 34.6835 26.3563 36.9654C27.4732 39.2423 28.7036 41.4932 30.0156 43.658C31.3616 45.8759 32.8243 48.0617 34.3675 50.1594ZM60.3201 41.7486C59.5913 43.0963 58.8357 44.418 58.0646 45.6876C57.2874 46.9713 56.4605 48.2589 55.6017 49.5285C58.0523 49.1621 60.3965 48.6925 62.591 48.1267C61.982 46.0751 61.2192 43.9354 60.3201 41.7486ZM21.9342 48.1257C24.1298 48.6905 26.4729 49.1611 28.9204 49.5275C28.0564 48.2499 27.2296 46.9613 26.4575 45.6876C25.6884 44.419 24.9318 43.0993 24.2041 41.7516C23.3091 43.9284 22.5473 46.0661 21.9342 48.1257ZM62.7201 36.9634C64.2973 40.3588 65.5824 43.7151 66.5476 46.9532C74.1882 44.3459 78.9097 40.542 78.9097 36.9634C78.9097 33.3848 74.1882 29.5809 66.5476 26.9736C65.5845 30.2118 64.2983 33.5681 62.7201 36.9634ZM17.9786 26.9756C10.3411 29.5819 5.62066 33.3858 5.62066 36.9634C5.62066 40.542 10.3411 44.3459 17.9807 46.9522C18.9448 43.7131 20.23 40.3568 21.8052 36.9654C20.2289 33.5731 18.9438 30.2168 17.9786 26.9756ZM21.9331 25.8011C22.5463 27.8577 23.3081 29.9965 24.2041 32.1773C24.9308 30.8336 25.6864 29.5129 26.4585 28.2402C27.2347 26.9596 28.0616 25.6719 28.9235 24.3993C26.4729 24.7648 24.1298 25.2354 21.9331 25.8011ZM55.6038 24.3983C56.4678 25.6769 57.2946 26.9646 58.0667 28.2402C58.8368 29.5089 59.5934 30.8295 60.3222 32.1773C61.2192 29.9975 61.981 27.8587 62.5941 25.8001C60.3954 25.2344 58.0523 24.7638 55.6038 24.3983ZM26.2355 5.41993C25.1919 5.41993 24.2691 5.63621 23.4929 6.06476C22.1386 6.80972 21.1683 8.21652 20.6078 10.2451C19.7974 13.1839 19.911 17.2181 20.935 21.9391C24.4033 21.046 28.1627 20.3821 32.1183 19.9656C34.4067 16.9908 36.8098 14.2703 39.2686 11.8672C34.3551 7.70487 29.74 5.41993 26.2355 5.41993ZM52.41 19.9646C56.3635 20.3811 60.1219 21.044 63.5923 21.9371C64.6163 17.2151 64.7309 13.1799 63.9185 10.2421C63.359 8.21753 62.3908 6.81372 61.0385 6.07077C60.2602 5.64322 59.3364 5.42594 58.2917 5.42594C54.7893 5.42594 50.1783 7.70987 45.2659 11.8672C47.7226 14.2693 50.1236 16.9908 52.41 19.9646ZM42.2652 19.4409C43.7661 19.4409 45.2989 19.477 46.839 19.5481C45.3423 17.7718 43.8084 16.1137 42.2672 14.6037C40.722 16.1157 39.1891 17.7738 37.6924 19.5481C39.2314 19.477 40.7643 19.4409 42.2652 19.4409Z" fill="black"/>
<path d="M26.2355 1.91618C30.8744 1.91618 36.5538 4.82992 42.2683 9.79329C47.9817 4.83392 53.658 1.92319 58.2928 1.92319C59.9681 1.92319 61.4917 2.29366 62.8202 3.0236C65.0457 4.24717 66.5899 6.37089 67.4095 9.3377C68.5212 13.2597 68.2879 18.0889 66.9615 23.4358C76.4808 26.5208 82.5225 31.388 82.5225 36.9642C82.5225 42.5403 76.4808 47.4076 66.9605 50.4935C68.3447 56.2739 68.577 61.2333 67.4085 64.5906C66.5889 67.5564 65.0457 69.6812 62.8222 70.9047C61.4917 71.6357 60.2829 72.0091 58.6086 72.0091C58.6076 72.0091 58.1792 72.0091 58.1782 72.0091C53.5414 72.0091 47.9776 69.0954 42.2652 64.138C36.5517 69.1004 30.8744 72.0121 26.2376 72.0121C24.5623 72.0121 23.0387 71.6417 21.7102 70.9117C19.4826 69.6852 17.9374 67.5584 17.1188 64.5896C15.8904 60.8678 16.1382 55.9756 17.5668 50.4925C8.04849 47.4066 2.00783 42.5403 2.00783 36.9642C2.00783 31.389 8.04849 26.5218 17.5657 23.4358C16.8566 20.3729 16.4034 17.5292 16.388 14.9359C16.3756 12.8873 16.6636 10.9818 17.1178 9.3387C17.9374 6.36889 19.4816 4.24216 21.7092 3.01659C23.0366 2.28565 24.5602 1.91618 26.2355 1.91618ZM20.5448 22.5597C24.1339 21.6034 28.1194 20.8805 32.398 20.4399C34.8568 17.2258 37.4302 14.3361 40.0221 11.8449C34.9931 7.49333 30.0961 4.91903 26.2355 4.91903C25.1011 4.91903 24.0936 5.15734 23.2379 5.62894C21.7587 6.44299 20.7069 7.95192 20.1092 10.1157C19.2235 13.3218 19.4248 17.6554 20.5448 22.5597ZM63.9825 22.5587C65.1025 17.6544 65.3037 13.3198 64.4181 10.1137C63.8214 7.95392 62.7696 6.44799 61.2935 5.63595C60.4367 5.16434 59.4262 4.92604 58.2928 4.92604C54.4353 4.92604 49.5414 7.49734 44.5134 11.8449C47.1043 14.3361 49.6746 17.2258 52.1313 20.4389C56.4079 20.8795 60.3934 21.6024 63.9825 22.5587ZM36.5641 20.1085C38.4242 20.0014 40.2895 19.9083 42.2291 19.9083C44.1686 19.9083 46.1051 20.0024 47.9652 20.1085C46.0989 17.8266 44.1831 15.7419 42.2662 13.8966C40.3493 15.7419 38.4325 17.8266 36.5641 20.1085ZM42.2652 50.9822C45.1152 50.9822 47.8434 50.861 50.4385 50.6397C52.0064 48.52 53.5228 46.2691 54.9514 43.9121C56.348 41.6101 57.6115 39.2801 58.7397 36.9642C57.6115 34.6482 56.348 32.3192 54.9524 30.0182C53.5228 27.6602 52.0075 25.4103 50.4385 23.2906C47.8444 23.0673 45.1162 22.9462 42.2652 22.9462C39.4141 22.9462 36.6849 23.0673 34.0898 23.2896C32.5198 25.4093 31.0024 27.6602 29.5728 30.0172C28.1772 32.3192 26.9137 34.6492 25.7855 36.9652C26.9137 39.2811 28.1761 41.6101 29.5717 43.9111C31.0014 46.2681 32.5177 48.519 34.0867 50.6387C36.6828 50.861 39.4131 50.9822 42.2652 50.9822ZM60.3769 33.3725C61.5381 30.6601 62.4991 27.9966 63.232 25.4494C60.5967 24.7465 57.6858 24.1657 54.5323 23.7402C55.5935 25.2691 56.6267 26.8542 57.6208 28.4943C58.6055 30.1154 59.5211 31.7455 60.3769 33.3725ZM24.1483 33.3736C25.003 31.7465 25.9197 30.1164 26.9024 28.4943C27.8974 26.8542 28.9317 25.2701 29.9939 23.7412C26.8404 24.1657 23.9295 24.7475 21.2942 25.4504C22.0271 27.9976 22.9881 30.6601 24.1483 33.3736ZM66.2008 47.5998C74.5371 44.8603 79.4258 40.8351 79.4258 36.9642C79.4258 33.0932 74.5371 29.068 66.2008 26.3285C65.217 29.7379 63.8586 33.3205 62.1544 36.9632C63.8586 40.6068 65.217 44.1894 66.2008 47.5998ZM18.3275 47.5988C19.3102 44.1904 20.6676 40.6078 22.3719 36.9662C20.6676 33.3235 19.3092 29.7399 18.3265 26.3305C9.99117 29.07 5.10455 33.0942 5.10455 36.9642C5.10455 40.8351 9.9922 44.8593 18.3275 47.5988ZM54.5323 50.1881C57.6858 49.7636 60.5967 49.1828 63.232 48.4789C62.4981 45.9317 61.5371 43.2682 60.3769 40.5548C59.5211 42.1819 58.6045 43.8119 57.6208 45.434C56.6267 47.0741 55.5935 48.6592 54.5323 50.1881ZM29.9908 50.1871C28.9297 48.6582 27.8964 47.0741 26.9013 45.435C25.9186 43.8139 25.003 42.1849 24.1483 40.5588C22.9881 43.2703 22.0281 45.9327 21.2952 48.4789C23.9295 49.1808 26.8394 49.7616 29.9908 50.1871ZM26.2386 69.0083C30.0982 69.0083 34.9931 66.435 40.0211 62.0854C37.4271 59.5932 34.8547 56.7025 32.3949 53.4874C28.1183 53.0478 24.1349 52.3249 20.5469 51.3686C19.4279 56.2729 19.2266 60.6065 20.1112 63.8126C20.7079 65.9754 21.7608 67.4843 23.2389 68.2984C24.0936 68.77 25.1042 69.0083 26.2386 69.0083ZM58.2928 69.0023C59.4272 69.0023 60.4357 68.764 61.2935 68.2924C62.7696 67.4803 63.8194 65.9744 64.415 63.8136C65.3006 60.6065 65.0994 56.2729 63.9804 51.3696C60.3913 52.3259 56.4069 53.0488 52.1293 53.4884C49.6725 56.7025 47.1012 59.5922 44.5103 62.0844C49.5383 66.43 54.4332 69.0013 58.2928 69.0023ZM42.2652 60.0338C44.1821 58.1874 46.0979 56.1017 47.9652 53.8198C46.1061 53.9269 44.2915 54.1532 42.3509 54.1532C40.4092 54.1532 38.4211 53.9269 36.561 53.8198C38.4294 56.1027 40.3473 58.1884 42.2652 60.0338ZM25.8691 0.989987C24.0121 0.989987 22.6846 1.32842 21.2003 2.14447C18.7239 3.50722 17.0145 5.84021 16.1206 9.07937C15.1297 12.671 15.2153 17.392 16.3642 22.778C6.56929 26.1393 0.975586 31.2819 0.975586 36.9642C0.975586 42.6475 6.57033 47.7891 16.3653 51.1504C15.2164 56.5363 15.1307 61.2573 16.1227 64.8489C17.0156 68.0861 18.7239 70.4191 21.2023 71.7838C22.6888 72.6009 24.4745 72.9483 26.3305 72.9483C30.9622 72.9483 36.3979 70.4101 42.2662 65.4727C48.1335 70.4051 53.6611 73.0064 58.2917 73.0074C60.1487 73.0074 61.8437 72.5939 63.3301 71.7768C65.8044 70.4161 67.5117 68.0861 68.4046 64.8509C69.3966 61.2583 69.3109 56.5373 68.162 51.1524C77.959 47.7901 83.5548 42.6475 83.5548 36.9642C83.5548 31.2809 77.96 26.1383 68.163 22.7769C69.313 17.39 69.3976 12.669 68.4056 9.07737C67.5117 5.84221 65.8033 3.51222 63.328 2.15148C61.8426 1.33543 60.1477 0.920898 58.2917 0.920898C53.6621 0.920898 48.1355 3.52324 42.2672 8.45757C36.3979 3.51923 30.8445 0.986983 26.2118 0.986983L25.8691 0.989987ZM21.3314 21.3211C20.8545 18.9941 20.5345 16.8133 20.5169 14.9008C20.5014 13.1786 20.745 11.6797 21.1053 10.374C21.6286 8.4796 22.5174 7.17593 23.7468 6.49906C24.4446 6.11456 25.2952 5.85423 26.2479 5.85423C29.5315 5.85423 33.8524 8.03503 38.514 11.896C36.2214 14.1719 33.9804 16.7212 31.8396 19.4907C28.139 19.8912 24.6108 20.505 21.3314 21.3211ZM46.0205 11.898C50.681 8.04003 55.0123 5.92732 58.2917 5.92732C59.2455 5.92732 60.0847 6.12257 60.7836 6.50707C62.0109 7.18193 62.8986 8.4826 63.4209 10.373C64.3231 13.1947 64.2065 16.9455 63.1959 21.3201C59.9165 20.505 56.3893 19.8902 52.6898 19.4917C50.5499 16.7232 48.311 14.1739 46.0205 11.898ZM38.8309 19.0011C39.9623 17.6994 41.1111 16.4679 42.2662 15.3184C43.4213 16.4679 44.5691 17.6994 45.6994 19.0011C44.5444 18.9611 43.3955 18.941 42.2652 18.941C41.1349 18.941 39.987 18.9611 38.8309 19.0011ZM34.6524 24.2478C37.135 24.0486 39.6928 23.9064 42.2652 23.9064C44.8365 23.9064 47.3944 24.0486 49.8759 24.2478C51.3541 26.2694 52.762 28.3791 54.0627 30.5249C55.3241 32.6056 56.5122 34.7693 57.596 36.9632C56.5111 39.158 55.323 41.3228 54.0616 43.4034C52.76 45.5502 51.353 47.6589 49.8749 49.6805C47.3944 49.8797 44.8365 50.1471 42.2652 50.1471C39.6918 50.1471 37.1329 49.8787 34.6493 49.6795C33.1701 47.6589 31.7621 45.5492 30.4605 43.4024C29.1991 41.3228 28.012 39.159 26.9282 36.9642C28.012 34.7693 29.2001 32.6046 30.4615 30.5239C31.7642 28.3781 33.1732 26.2684 34.6524 24.2478ZM60.2489 30.9805C59.6822 29.9612 59.101 28.9599 58.5116 27.9866C57.9232 27.0164 57.307 26.0421 56.6691 25.0739C58.5003 25.3763 60.2664 25.7377 61.9479 26.1553C61.4659 27.7233 60.8971 29.3374 60.2489 30.9805ZM22.5783 26.1553C24.2598 25.7377 26.026 25.3763 27.8572 25.0739C27.2182 26.0421 26.602 27.0164 26.0136 27.9856C25.4242 28.9589 24.843 29.9602 24.2763 30.9795C23.6281 29.3384 23.0604 27.7243 22.5783 26.1553ZM63.2868 36.9632C64.7474 33.7971 65.9572 30.6631 66.8893 27.6252C74.0148 30.1474 78.3936 33.6809 78.3936 36.9642C78.3936 40.2474 74.0148 43.7809 66.8893 46.3031C65.9561 43.2642 64.7474 40.1292 63.2868 36.9632ZM17.638 46.3021C10.5145 43.7799 6.13679 40.2464 6.13679 36.9642C6.13679 33.6819 10.5145 30.1484 17.637 27.6262C18.5691 30.6651 19.7778 33.7991 21.2385 36.9652C19.7789 40.1302 18.5701 43.2642 17.638 46.3021ZM56.668 48.8554C57.3059 47.8862 57.9232 46.9119 58.5106 45.9427C59.101 44.9694 59.6822 43.9671 60.2489 42.9478C60.8971 44.5909 61.4648 46.206 61.9479 47.775C60.2654 48.1906 58.4992 48.553 56.668 48.8554ZM22.5793 47.773C23.0614 46.205 23.6291 44.5919 24.2763 42.9508C24.842 43.9691 25.4232 44.9704 26.0126 45.9427C26.5999 46.9119 27.2162 47.8852 27.8551 48.8544C26.025 48.551 24.2598 48.1896 22.5793 47.773ZM26.2386 68.007C25.2848 68.007 24.4467 67.8118 23.7478 67.4273C22.5195 66.7504 21.6307 65.4477 21.1084 63.5533C20.2506 60.7046 20.3476 56.9528 21.3334 52.6062C24.6118 53.4213 28.1379 54.0361 31.8365 54.4346C33.9784 57.2041 36.2194 59.7544 38.513 62.0323C33.8524 65.8943 29.5201 68.008 26.2386 68.007ZM52.6887 54.4366C56.3883 54.0371 59.9155 53.4233 63.1949 52.6082C64.3355 57.3543 64.4253 61.1372 63.4189 63.5543C62.8976 65.4457 62.0109 66.7464 60.7846 67.4202C60.0847 67.8047 59.2466 68 58.2938 68V69.0013L58.2928 68C55.0102 68 50.6779 65.8873 46.0184 62.0313C48.31 59.7554 50.5489 57.2061 52.6887 54.4366ZM42.2652 58.6119C41.1091 57.4625 39.9592 56.2299 38.8278 54.9272C39.9839 54.9673 41.1338 54.9873 42.2652 54.9873C43.3955 54.9873 44.5444 54.9673 45.6994 54.9272C44.5691 56.2299 43.4203 57.4625 42.2652 58.6119Z" fill="black"/>
</svg>
