<svg width="105" height="105" viewBox="0 0 105 105" fill="none" xmlns="http://www.w3.org/2000/svg">
<path d="M52.4999 29.9825C31.851 29.9825 15.1084 24.1509 15.1084 16.4514V88.5487C15.1084 95.9577 31.5598 101.966 51.9741 102.084H52.4999C73.1488 102.084 89.8914 96.249 89.8914 88.5487V16.4514C89.8914 23.9753 73.1488 29.9825 52.4999 29.9825Z" fill="url(#paint0_linear_716_256)"/>
<path d="M89.8914 16.4514C89.8914 23.9753 73.1488 29.9833 52.4999 29.9833C31.851 29.9833 15.1084 24.1509 15.1084 16.4514C15.1084 8.75114 31.851 2.91626 52.4999 2.91626C73.1488 2.91626 89.8914 8.75114 89.8914 16.4514Z" fill="#E8E8E8"/>
<path d="M81.201 15.3423C81.201 20.1264 68.3073 23.9753 52.4999 23.9753C36.6925 23.9753 23.7988 20.1264 23.7988 15.3423C23.7988 10.5582 36.6925 6.76758 52.4999 6.76758C68.3073 6.76758 81.201 10.6157 81.201 15.3423Z" fill="#79888F"/>
<path d="M52.5 17.499C44.8012 17.3036 37.1258 18.4287 29.8069 20.8254C37.1326 23.1779 44.8105 24.2437 52.5 23.9754C60.2051 24.2003 67.8889 23.0546 75.1931 20.5916C67.8531 18.307 60.1837 17.2618 52.5 17.499Z" fill="#445964"/>
<path d="M75.2505 66.4994V46.6683H69.9989V70.7584H84.3511V66.4994H75.2505ZM33.6008 56.7582C32.5166 56.3221 31.511 55.7117 30.6239 54.951C30.3887 54.702 30.2057 54.4085 30.0857 54.0877C29.9657 53.7669 29.911 53.4254 29.925 53.0832C29.9072 52.7407 29.9785 52.3995 30.1319 52.0929C30.2853 51.7862 30.5156 51.5246 30.8003 51.3334C31.5182 50.8369 32.3795 50.5905 33.2514 50.6321C35.3285 50.5397 37.3783 51.1341 39.0838 52.3236V47.309C37.2209 46.6135 35.2382 46.2965 33.2514 46.3763C30.9624 46.2536 28.7054 46.9562 26.8907 48.3565C26.1003 48.9664 25.4662 49.7555 25.0406 50.6585C24.615 51.5616 24.4101 52.5529 24.4428 53.5507C24.4428 56.5244 26.3074 58.8573 30.2753 60.6071C31.5632 61.155 32.7772 61.8597 33.8928 62.7087C34.1655 62.9373 34.385 63.2227 34.536 63.5449C34.6871 63.867 34.766 64.2183 34.7673 64.5741C34.7673 65.2952 34.4178 65.9678 33.8346 66.3845C33.0394 66.8484 32.1266 67.071 31.2071 67.0252C28.861 67.0056 26.6018 66.1346 24.8497 64.5741V69.9988C26.7761 70.9931 28.9258 71.4753 31.0923 71.3991C33.5368 71.5435 35.9592 70.8675 37.9747 69.473C38.6862 68.7993 39.2308 67.9689 39.5651 67.0479C39.8995 66.1268 40.0144 65.1405 39.9008 64.1672C39.9293 62.6739 39.4105 61.2218 38.4423 60.0845C37.0793 58.6488 35.4298 57.5156 33.6008 56.7582ZM64.1673 66.0318C65.4915 63.8142 66.1592 61.2663 66.0926 58.6843C65.9605 56.4974 65.2998 54.3753 64.1673 52.4999C63.2567 50.6788 61.8388 49.1598 60.0846 48.126C58.3063 47.1173 56.2942 46.5934 54.2497 46.6068C52.0465 46.5593 49.8709 47.1038 47.9497 48.1834C46.1487 49.188 44.6715 50.6854 43.6915 52.4999C42.6589 54.562 42.1388 56.8427 42.1755 59.1486C42.1871 61.1756 42.6663 63.1727 43.5758 64.9843C44.4665 66.7854 45.8657 68.2858 47.6003 69.2999C49.3624 70.3732 51.3707 70.9757 53.4327 71.0496L58.4505 76.8821H65.5093L58.3316 70.4672C60.7487 69.7421 62.8216 68.1665 64.1673 66.0318ZM58.3316 64.5741C57.8011 65.2338 57.1248 65.7614 56.3559 66.1156C55.587 66.4697 54.7464 66.6407 53.9003 66.615C53.0474 66.6432 52.2001 66.4674 51.4288 66.1023C50.6576 65.7372 49.9845 65.1933 49.4657 64.5159C48.2349 62.8307 47.6359 60.7665 47.7733 58.6843C47.6394 56.6014 48.238 54.5373 49.4657 52.8494C50.0145 52.1724 50.7082 51.6272 51.4957 51.2538C52.2832 50.8804 53.1444 50.6884 54.0159 50.692C54.8681 50.6543 55.716 50.8323 56.4811 51.2094C57.2463 51.5865 57.9039 52.1506 58.3931 52.8494C59.5414 54.57 60.094 56.6196 59.9665 58.6843C60.1714 60.7824 59.5887 62.8818 58.3316 64.5741Z" fill="url(#paint1_radial_716_256)"/>
<defs>
<linearGradient id="paint0_linear_716_256" x1="15.1082" y1="59.2667" x2="89.8915" y2="59.2667" gradientUnits="userSpaceOnUse">
<stop stop-color="#445964"/>
<stop offset="0.07" stop-color="#445964"/>
<stop offset="0.36" stop-color="#657882"/>
<stop offset="0.52" stop-color="#657882"/>
<stop offset="0.64" stop-color="#657882"/>
<stop offset="0.82" stop-color="#445964"/>
<stop offset="1" stop-color="#445964"/>
</linearGradient>
<radialGradient id="paint1_radial_716_256" cx="0" cy="0" r="1" gradientUnits="userSpaceOnUse" gradientTransform="translate(42763.2 13766.9) scale(30934.2 8024.06)">
<stop stop-color="#F2F2F2"/>
<stop offset="0.58" stop-color="#EEEEEE"/>
<stop offset="1" stop-color="#E6E6E6"/>
</radialGradient>
</defs>
</svg>
