<svg width="82" height="87" viewBox="0 0 82 87" fill="none" xmlns="http://www.w3.org/2000/svg">
<path d="M14.5229 31.9453H78.374V82.0179H14.5229V31.9453Z" fill="white"/>
<path d="M0.960938 43.4387V85.9192H81.0391V0.958252H0.960938V43.4387ZM65.4911 40.0403C67.4091 40.5125 69.1522 41.5768 70.5008 43.0989C71.2432 43.9189 71.8886 44.8319 72.4227 45.8176C72.4227 45.9264 68.9633 48.4072 66.8556 49.7938C66.7788 49.8482 66.4713 49.4947 66.1317 48.9578C65.747 48.2534 65.2003 47.6639 64.5427 47.2444C63.8851 46.8248 63.1381 46.5888 62.3713 46.5585C59.9433 46.3818 58.3802 47.7343 58.393 49.9569C58.3729 50.5103 58.4923 51.0593 58.7389 51.5474C59.2706 52.7232 60.2636 53.4233 63.377 54.8507C69.1106 57.4675 71.5642 59.1939 73.0889 61.6475C74.793 64.3663 75.1709 68.7571 74.0178 72.006C72.7366 75.5404 69.5975 77.9397 65.158 78.7349C63.1303 78.9813 61.0816 78.9585 59.0592 78.6669C55.9596 78.1248 53.1045 76.5459 50.9105 74.1606C50.1738 73.2974 48.7388 71.0476 48.8284 70.8845C49.0623 70.7003 49.3085 70.5345 49.5652 70.3883L52.5312 68.6483L54.8311 67.2346L55.3116 67.989C56.1224 69.2197 57.1544 70.2683 58.3481 71.0748C60.9106 72.5022 64.4084 72.305 66.1381 70.6534C66.7189 70.0482 67.0812 69.246 67.1619 68.3866C67.2427 67.5272 67.0368 66.6649 66.5802 65.95C65.9395 65.0052 64.6583 64.21 61.0772 62.5515C56.9452 60.662 55.1642 59.4929 53.537 57.6306C52.5212 56.4016 51.7712 54.9517 51.3397 53.3825C51.0178 51.5898 50.9702 49.7538 51.1987 47.945C52.0508 43.7106 55.0425 40.754 59.4116 39.8772C61.4349 39.6115 63.4845 39.6711 65.4911 40.0539V40.0403ZM46.6952 43.6018V47.0818H36.2978V78.5038H28.9242V47.075H18.5012V43.6766C18.4688 42.5047 18.4944 41.3317 18.5781 40.1626C18.6294 40.1015 24.9844 40.1015 32.6719 40.1015H46.6567L46.6952 43.6018Z" fill="black"/>
</svg>
